<?xml version="1.0" standalone="no"?>
<!DOCTYPE svg PUBLIC "-//W3C//DTD SVG 20010904//EN"
 "http://www.w3.org/TR/2001/REC-SVG-20010904/DTD/svg10.dtd">
<svg version="1.0" xmlns="http://www.w3.org/2000/svg"
 width="260.000000pt" height="260.000000pt" viewBox="0 0 260.000000 260.000000"
 preserveAspectRatio="xMidYMid meet">
<metadata>
Created by potrace 1.11, written by Peter Selinger 2001-2013
</metadata>
<g transform="translate(0.000000,260.000000) scale(0.100000,-0.100000)"
fill="#000000" stroke="none">
<path d="M1347 2554 c-127 -24 -285 -93 -355 -154 -54 -47 -61 -118 -15 -164
37 -37 84 -35 155 9 58 36 165 80 215 90 15 3 39 7 53 10 35 8 188 8 230 1
152 -27 298 -103 405 -210 134 -135 215 -327 217 -515 0 -100 -7 -146 -44
-255 -83 -251 -276 -567 -577 -944 l-106 -133 -39 43 c-21 24 -52 61 -70 82
-17 21 -43 53 -57 70 -42 51 -143 187 -189 256 -59 87 -85 110 -127 110 -26 0
-43 -8 -69 -34 -57 -57 -50 -81 61 -235 134 -186 327 -424 418 -513 54 -54
111 -51 163 8 12 13 48 54 82 91 283 317 564 744 675 1023 101 256 116 446 52
675 -135 482 -602 780 -1078 689z"/>
<path d="M532 2070 c-59 -36 -68 -119 -17 -169 l25 -26 186 0 186 0 29 33 c49
55 36 133 -29 166 -43 22 -343 19 -380 -4z"/>
<path d="M1302 1927 c-29 -13 -51 -63 -48 -109 4 -42 16 -55 125 -125 36 -23
62 -43 56 -44 -5 0 -289 -1 -630 -2 -574 -2 -623 -3 -648 -20 -50 -32 -64 -89
-36 -142 26 -51 10 -50 689 -55 l635 -5 -82 -52 c-45 -29 -89 -63 -97 -75 -45
-64 9 -158 91 -158 40 0 520 320 533 356 17 44 11 73 -22 108 -34 35 -440 310
-483 326 -28 10 -55 9 -83 -3z"/>
<path d="M505 1191 c-73 -31 -88 -126 -29 -182 25 -23 30 -24 202 -26 135 -1
182 2 203 13 66 33 79 111 30 166 l-29 33 -179 2 c-98 1 -187 -1 -198 -6z"/>
</g>
</svg>
